<?xml version="1.0" encoding="UTF-8"?>
<svg width="752pt" height="752pt" version="1.1" viewBox="0 0 752 752" xmlns="http://www.w3.org/2000/svg">
 <path d="m549.26 497.98c11.078 11.078 11.078 29.105 0 40.184l-11.098 11.098c-5.5352 5.5391-12.816 8.3125-20.094 8.3125-7.2773 0-14.555-2.7695-20.094-8.3125l-121.98-121.98-121.98 121.98c-11.078 11.082-29.105 11.082-40.184 0l-11.098-11.098c-11.078-11.082-11.078-29.105 0-40.184l121.98-121.98-121.98-121.98c-11.078-11.082-11.078-29.105 0-40.184l11.098-11.098c5.3672-5.3672 12.504-8.3242 20.094-8.3242s14.727 2.9609 20.094 8.3242l121.97 121.98 121.98-121.98c5.3672-5.3672 12.504-8.3242 20.094-8.3242 7.5898 0 14.727 2.9609 20.094 8.3242l11.09 11.098c11.078 11.078 11.078 29.105 0 40.184l-121.97 121.98z" fill="#fff"/>
</svg>
