
<svg width="752pt" height="752pt" version="1.1" viewBox="0 0 752 752" xmlns="http://www.w3.org/2000/svg">
 <path d="m533.86 186.57h-315.71c-17.363 0-31.574 14.211-31.574 31.574v315.72c0 17.359 14.211 31.57 31.574 31.57h315.72c17.359 0 31.57-14.211 31.57-31.574v-315.71c0-17.363-14.211-31.574-31.574-31.574zm-225.63 326.88c-6.1523 6.168-16.16 6.168-22.324 0l-51.98-51.965 22.324-22.32 25.035 25.02v-230.26h31.574v230.25l25.035-25.039 22.324 22.34zm115.13-26.945h-31.574v-31.57h31.574zm31.574-63.145h-63.148v-31.574h63.148zm31.57-63.141h-94.715l-0.003906-31.574h94.715zm31.57-63.148h-126.29v-31.57h126.29z" fill="#72aaec"/>
</svg>
