<?xml version="1.0" encoding="UTF-8"?>
<svg width="752pt" height="752pt" version="1.1" viewBox="0 0 752 752" xmlns="http://www.w3.org/2000/svg">
 <path d="m376 178.68c-52.332 0-102.52 20.789-139.53 57.797-37.008 37.004-57.797 87.195-57.797 139.53 0 52.336 20.789 102.53 57.797 139.53 37.004 37.008 87.195 57.797 139.53 57.797 52.336 0 102.53-20.789 139.53-57.797 37.008-37.004 57.797-87.195 57.797-139.53 0-34.637-9.1172-68.664-26.438-98.66-17.32-30-42.23-54.91-72.227-72.227-29.996-17.32-64.023-26.438-98.664-26.438zm-9.8672 59.199h0.003907c7.8477 0 15.379 3.1172 20.93 8.668 5.5508 5.5508 8.668 13.078 8.668 20.93 0 7.8516-3.1172 15.379-8.668 20.93-5.5508 5.5508-13.082 8.668-20.93 8.668-7.8516 0-15.379-3.1172-20.93-8.668-5.5508-5.5508-8.6719-13.078-8.6719-20.93 0-7.8516 3.1211-15.379 8.6719-20.93s13.078-8.668 20.93-8.668zm49.332 256.52h-19.73c-10.469 0-20.504-4.1602-27.906-11.562-7.4023-7.3984-11.559-17.438-11.559-27.906v-78.93c-7.0508 0-13.566-3.7578-17.09-9.8633-3.5234-6.1055-3.5234-13.629 0-19.734 3.5234-6.1055 10.039-9.8672 17.09-9.8672h19.734-0.003906c5.2344 0 10.254 2.082 13.953 5.7812 3.7031 3.6992 5.7812 8.7188 5.7812 13.953v98.664h19.734l-0.003906-0.003906c7.0508 0 13.566 3.7617 17.09 9.8672 3.5273 6.1055 3.5273 13.629 0 19.734-3.5234 6.1055-10.039 9.8672-17.09 9.8672z" fill="#4976a3"/>
</svg>
